<svg xmlns="http://www.w3.org/2000/svg" viewBox="0 0 1707.91 1209.92"><defs><style>.cls-1{fill:#22c55e}</style></defs><g><path d="M119.66 2.01h89.26c6.42 0 12.24 1.2 17.65 3.61 5.42 2.41 10.03 5.82 13.84 10.43 3.8 4.61 6.62 10.03 8.82 16.25 2.21 6.21 3.21 13.44 3.21 21.26s-1.01 14.85-3.21 21.07c-2.21 6.42-5.02 11.83-8.82 16.25-3.81 4.61-8.43 8.02-13.84 10.43s-11.23 3.61-17.65 3.61h-59.97v37.51h-29.29zm29.29 72.61h51.95c2.21 0 4.81-.2 7.43-.4 2.61-.2 5.01-.8 7.22-2.21 2.21-1.4 4.02-3.4 5.62-6.42 1.4-2.8 2.21-6.81 2.21-12.03s-.8-9.43-2.21-12.44c-1.61-2.8-3.41-4.81-5.62-6.21a15.4 15.4 0 0 0-7.22-2.41c-2.61-.2-5.22-.2-7.43-.2h-51.95zM399.64 112.13v30.29H282.69V2.01h29.29v110.12zM551.64 142.42l-12.24-29.89h-68l-12.23 29.89h-32.09L485.65 2.01h39.51l58.77 140.41zm-69.4-56.77h46.33L505.5 28.68l-23.27 56.97ZM724.34 32.3h-55.16v110.12H639.9V32.3h-55.16V2.01h139.61V32.3ZM782.68 32.3V68h81.24v30.49h-81.24v43.93h-29.29V2.01h120.15V32.3zM967.98 144.42c-12.44 0-23.07-1.61-32.09-4.82-9.03-3.01-16.45-7.62-22.26-13.84-5.82-6.21-10.23-13.84-12.84-22.86-2.81-9.03-4.21-19.26-4.21-30.9s1.4-21.86 4.21-30.89c2.61-9.03 7.02-16.44 12.84-22.67 5.81-6.02 13.23-10.63 22.26-13.84 9.03-3.01 19.65-4.61 32.09-4.61s23.27 1.61 32.29 4.61c9.03 3.21 16.44 7.82 22.26 14.04 5.82 6.21 10.03 13.64 12.84 22.46 2.81 9.03 4.21 19.26 4.21 30.89s-1.4 21.87-4.21 30.9-7.02 16.65-12.84 22.67c-5.82 6.21-13.24 10.83-22.26 14.04-9.03 3.21-19.86 4.82-32.29 4.82m0-30.29c15.24 0 26.07-3.41 32.69-10.43 6.42-6.82 9.62-17.45 9.62-31.7s-3.21-24.87-9.62-31.69c-6.62-6.62-17.45-10.03-32.69-10.03s-26.08 3.41-32.5 10.03c-6.42 6.82-9.63 17.45-9.63 31.69s3.21 25.08 9.83 31.9c6.42 6.82 17.25 10.23 32.3 10.23M1202.42 53.56c0 11.44-2.21 21.26-6.62 29.29-4.41 8.22-10.43 14.04-18.05 17.85l21.06 41.73h-34.5l-18.26-37.51h-47.14v37.51h-29.29V2.01h89.26c6.42 0 12.24 1.2 17.65 3.61 5.42 2.41 10.03 5.82 13.84 10.43s6.62 10.03 8.82 16.25c2.21 6.21 3.21 13.44 3.21 21.26Zm-103.5-21.26v42.32h51.95c2.21 0 4.82-.2 7.43-.4s5.01-.8 7.22-2.21c2.21-1.4 4.02-3.4 5.62-6.42 1.4-2.8 2.21-6.81 2.21-12.03s-.8-9.43-2.21-12.44c-1.61-2.8-3.41-4.81-5.62-6.21a15.4 15.4 0 0 0-7.22-2.41c-2.61-.2-5.22-.2-7.43-.2zM1405.57 142.42h-29.28V46.14l-47.14 96.28h-21.26l-47.14-96.28v96.28h-29.29V2.01h39.52l47.54 99.09 47.54-99.09h39.51zM1555.96 142.42l-12.24-29.89h-68l-12.23 29.89h-32.09l58.57-140.41h39.51l58.77 140.41zm-69.4-56.77h46.33l-23.07-56.97-23.27 56.97A" class="cls-1"/><g><path d="M220.75 734.94c-2.54 67.19 21.74 130.85 68.38 179.24 46.65 48.47 109.23 75.18 176.3 75.18h76.97l-203.2 203.16C142.71 1137.09 3.64 957.3.07 752.63c-2.11-123.21 45.26-240.47 133.42-330.18C223.09 331.3 347.26 279 474.17 279h288.74L542.38 499.53H470.7c-132.95 0-245.08 105.61-249.96 235.42h.01Z" class="cls-1"/><path d="M1247.72 922.05c0 75.22-28.69 146.06-81.42 200.34-54.83 56.42-128.18 87.53-206.54 87.53H483.65l220.48-220.56h254.44c32.42 0 60.67-22.41 67.15-53.33 4.17-19.94-.72-40.45-13.35-56.14-12.71-15.85-31.62-25.03-52.13-25.19l-187.2.03c-21.85 0-43.74-2.03-65.12-6.08-.87-.16-1.75-.31-2.62-.52-1.03-.2-2.06-.39-2.78-.56-63.62-13.07-120.59-43.35-164.89-87.73-3.06-2.98-6.4-6.43-10.17-10.57-30.79-33.42-55.78-72.79-73.22-115.15h478.44c157.78 0 310.36 125.21 314.94 279.04.08 2.94.12 5.92.12 8.86l-.02.02ZM1247.72 279.01c-13.91 33.73-37.36 75.46-73.87 115.07-3.73 4.01-7.11 7.54-10.37 10.85-60.12 60.12-145.87 94.6-235.27 94.6H704.14L924.7 279h323.02ZM1313.67 989.36h220.53v220.56h-220.53zM1539.63 449.57c-51.91-50.09-81-105.03-115.66-169.29-34.71 64.25-63.8 119.25-115.71 169.29-32.94 31.82-65.47 60.76-168.28 116.42 102.81 55.6 135.34 84.54 168.28 116.42 51.91 50.04 81 104.98 115.71 169.24 34.66-64.25 63.75-119.25 115.66-169.24 32.99-31.87 65.47-60.81 168.28-116.42-102.81-55.65-135.29-84.59-168.28-116.42m-58.13 172.58c-22.41 21.6-41.03 43.71-57.53 66.38h-.05c-16.44-22.67-35.11-44.78-57.53-66.38-19.07-18.42-38.1-35.87-65.77-56.01.1-.05.15-.1.25-.15-.1-.1-.15-.15-.25-.2 27.68-20.14 46.7-37.59 65.77-56.01 22.41-21.6 41.08-43.71 57.53-66.38h.05c16.49 22.67 35.11 44.78 57.53 66.38 19.07 18.42 38.1 35.87 65.77 56.01-.05.05-.15.1-.25.2.1.05.2.1.25.15-27.68 20.14-46.7 37.59-65.77 56.01" class="cls-1"/></g></g></svg>
